<svg xmlns="http://www.w3.org/2000/svg" width="512" height="512" viewBox="0 0 512 512" version="1.1">
	<style>
		path {
			fill: black;
		}
		@media (prefers-color-scheme: dark) {
			path {
				fill: white;
			}
		}
  	</style>
	<path d="M 238 11.595 C 206.119 15.323, 184.554 21.643, 156.500 35.479 C 88.690 68.923, 44.579 121.898, 23.398 195.327 C 16.760 218.340, 15.493 228.300, 15.554 257 C 15.606 281.644, 15.714 283.004, 18.754 297.500 C 28.579 344.354, 52.519 390.660, 84.600 424.867 C 120.991 463.669, 173.584 490.411, 227.370 497.462 C 240.948 499.242, 265.770 499.469, 279.789 497.942 C 369.831 488.134, 450.461 424.436, 482.383 337.891 C 492.648 310.060, 497 286.224, 497 257.827 C 497 193.056, 468.427 126.004, 421.860 81.496 C 383.248 44.592, 337.550 21.328, 288.154 13.430 C 278.949 11.958, 245.396 10.731, 238 11.595 M 237 33.050 C 196.027 37.531, 151.039 57.332, 116.836 85.940 C 91.989 106.722, 74.264 129.567, 60.071 159.104 C 35.135 210.998, 30.897 267.950, 47.999 321.337 C 69.102 387.218, 113.594 435.698, 176.500 461.356 C 228.535 482.581, 277.702 483.211, 330.893 463.336 C 394.599 439.531, 445.941 385.115, 465.379 320.797 C 476.697 283.344, 477.969 248.553, 469.418 210.273 C 457.157 155.383, 429.896 112.057, 387.464 80.025 C 362.279 61.012, 330.663 45.427, 303.301 38.538 C 281.965 33.166, 255.767 30.997, 237 33.050 M 286 96.670 C 279.466 97.243, 259.599 100.822, 256.581 101.969 C 254.775 102.656, 254 103.687, 254 105.403 C 254 107.628, 254.488 107.906, 259.250 108.388 C 262.137 108.680, 269.450 109.128, 275.500 109.383 C 314.963 111.047, 351.884 129.316, 362.582 152.472 C 364.543 156.715, 365.942 160.392, 365.691 160.643 C 365.440 160.894, 362.094 156.914, 358.255 151.799 C 354.417 146.685, 348.852 140.221, 345.888 137.435 C 340.737 132.593, 331.350 126.317, 330.512 127.155 C 330.293 127.374, 332.706 129.695, 335.875 132.314 C 342.575 137.850, 354.941 150.383, 350.500 147.136 C 336.333 136.779, 328.403 132.378, 316.771 128.422 C 292.714 120.240, 263.417 124.047, 231.500 139.502 C 217.366 146.346, 195.557 160.890, 197.105 162.439 C 197.396 162.729, 204.456 159.593, 212.796 155.471 C 238.303 142.863, 253.058 139.124, 272.428 140.361 C 297.301 141.949, 318.498 151.654, 336.966 169.910 C 358.499 191.195, 371.924 218.596, 378.166 254 C 380.113 265.042, 379.814 293.152, 377.619 305.500 C 375.485 317.497, 370.413 333.245, 365.609 342.784 L 362.102 349.747 364.440 351.943 L 366.777 354.139 372.271 347.117 C 383.162 333.198, 391.796 312.490, 395.667 291 C 396.940 283.935, 397.388 275.733, 397.415 259 C 397.459 232.716, 395.780 221.284, 388.981 201.567 C 384.483 188.522, 382.259 183.837, 372.631 167.117 C 366.350 156.210, 360.081 140.585, 361.441 139.226 C 362.444 138.223, 378.180 154.910, 383.988 163.137 C 394.442 177.944, 402.629 197.506, 406.532 217 C 407.630 222.488, 408.370 232.055, 408.619 244 C 408.831 254.175, 409.392 262.630, 409.866 262.788 C 410.991 263.164, 416.563 247.579, 418.729 238 C 421.323 226.526, 421.048 199.089, 418.236 188.854 C 413.282 170.824, 404.638 156.033, 390.153 140.798 C 373.632 123.423, 355.432 110.966, 335.734 103.552 C 322.926 98.731, 299.488 95.488, 286 96.670 M 226 107.135 C 209.516 110.926, 186.030 119.849, 183.033 123.460 C 181.728 125.033, 183.218 129, 185.114 129 C 185.688 129, 192.085 126.782, 199.329 124.072 C 206.573 121.361, 217.862 117.754, 224.416 116.057 C 237.083 112.775, 239 111.836, 239 108.913 C 239 107.415, 236.065 104.733, 234.816 105.090 C 234.642 105.140, 230.675 106.060, 226 107.135 M 253.500 146.570 C 235.341 149.034, 224.851 152.100, 210.132 159.244 C 196.992 165.622, 186.809 173.246, 180.757 181.237 C 175.771 187.821, 175.089 189.999, 177.410 191.926 C 178.530 192.855, 179.514 192.488, 182.183 190.144 C 188.909 184.239, 207.022 172.199, 215.161 168.224 C 251.420 150.515, 285.735 152.325, 316.782 173.583 C 323.230 177.998, 325.258 178.255, 327.063 174.882 C 328.415 172.357, 327.050 169.990, 321.751 165.669 C 312.134 157.827, 298.043 151.454, 283.610 148.418 C 276.516 146.926, 258.864 145.842, 253.500 146.570 M 138.037 167.250 C 124.782 183.239, 116.733 206.057, 113.925 235.606 C 110.627 270.301, 118.405 305.461, 137.240 341 C 148.949 363.094, 151.038 367.296, 150.552 367.781 C 148.789 369.545, 132.803 353.549, 125.898 343.113 C 111.162 320.840, 104.144 297.200, 102.198 263.274 C 101.454 250.307, 100.841 246.825, 99.534 248.132 C 98.448 249.218, 93.003 272.472, 92.044 280.120 C 87.600 315.560, 97.794 343.152, 125.741 371.332 C 144.787 390.536, 169.143 404.183, 195 410.137 C 207.342 412.979, 235.031 413.728, 248.942 411.596 C 259.262 410.014, 260.955 409.189, 260.985 405.729 C 261.006 403.309, 258.189 402.403, 246.537 401.081 C 223.789 398.501, 201.507 392.268, 185.058 383.883 C 174.317 378.408, 161.267 368.608, 155.776 361.893 C 152.203 357.523, 145 344.222, 145 341.994 C 145 341.352, 148.488 344.369, 152.750 348.698 C 165.320 361.467, 178.905 370.860, 193.723 377.029 C 204.253 381.412, 213.697 383.174, 226.657 383.172 C 244.845 383.168, 261.281 378.864, 281.500 368.808 C 295.919 361.636, 316.079 348, 312.262 348 C 311.721 348, 306.378 350.296, 300.389 353.103 C 279.870 362.718, 269.396 365.775, 254 366.642 C 217.963 368.672, 177.784 347.741, 156.785 316 C 134.948 282.990, 127.218 246.008, 133.596 205.049 C 135.444 193.186, 141.048 176.186, 145.467 169.039 C 148.038 164.881, 148.616 163.151, 147.887 161.789 C 146.225 158.683, 144.216 159.796, 138.037 167.250 M 170.453 173.360 C 163.374 180.759, 157.070 192.164, 154.065 203.007 C 151.842 211.029, 151.511 214, 152.840 214 C 153.946 214, 173.145 183.069, 176.427 176 C 181.452 165.177, 179.223 164.193, 170.453 173.360 M 249.367 172.053 C 231.986 174.320, 215.800 182.233, 202.638 194.897 C 184.787 212.075, 176.022 232.379, 176.007 256.590 C 175.992 279.942, 184.261 298.630, 201.986 315.304 C 211.019 323.803, 223.212 330.602, 235 333.714 C 245.266 336.424, 263.108 335.916, 274.297 332.594 C 303.227 324.004, 323.593 303.301, 332.631 273.297 C 336.173 261.540, 336.407 242.743, 333.163 230.713 C 325.010 200.481, 298.552 177.019, 267 172.041 C 259.773 170.900, 258.199 170.902, 249.367 172.053 M 241.500 187.870 C 223.555 193.035, 206.378 208.586, 199.323 226.053 C 195.143 236.402, 193.911 243.001, 193.919 255 C 193.928 268.567, 195.424 275.261, 200.960 286.500 C 209.626 304.095, 224.381 316.286, 242.053 320.451 C 254.417 323.365, 266.484 321.729, 279.670 315.350 C 291.004 309.868, 303.094 297.694, 308.819 286 C 314.144 275.122, 315.997 267.943, 316.700 255.459 C 317.870 234.702, 311.233 215.957, 298.220 203.262 C 286.492 191.822, 272.311 185.950, 256.698 186.071 C 251.176 186.114, 245.102 186.833, 241.500 187.870 M 347.670 305.250 C 337.911 319.295, 326.543 341.876, 328.332 343.665 C 329.888 345.221, 342.409 330.640, 347.872 320.910 C 353.381 311.097, 357.731 296, 355.049 296 C 354.526 296, 351.205 300.163, 347.670 305.250 M 317 328.601 C 299.902 339.794, 283.427 346.213, 265.226 348.771 C 246.453 351.410, 227.358 348.381, 209.022 339.858 C 204.360 337.690, 198.418 334.551, 195.817 332.883 C 193.217 331.214, 190.103 329.996, 188.897 330.175 C 185.877 330.623, 184.187 333.479, 185.596 335.750 C 188.868 341.023, 207.966 351.835, 221 355.794 C 237.241 360.726, 263.615 361.268, 279.495 356.995 C 300.424 351.364, 324.263 338.136, 328.226 329.954 C 330.003 326.284, 329.485 322.992, 327.133 323.018 C 326.235 323.028, 321.675 325.541, 317 328.601 M 318.500 383.504 C 309.335 387.566, 291.897 393.542, 277.868 397.427 C 271.854 399.093, 270.110 401.400, 272.447 404.597 C 273.563 406.123, 274.352 406.162, 280.591 405.006 C 291.446 402.994, 306.104 398.379, 317.043 393.529 C 330.123 387.730, 333.287 385.490, 332.403 382.655 C 331.783 380.670, 330.209 379.002, 329 379.051 C 328.725 379.062, 324 381.066, 318.500 383.504" stroke="none" fill="black" fill-rule="evenodd"/>
</svg>